<svg width="22" height="21" viewBox="0 0 22 21" fill="none" xmlns="http://www.w3.org/2000/svg">
<path fill-rule="evenodd" clip-rule="evenodd" d="M11 0.5C5.1995 0.5 0.5 5.195 0.5 10.9895C0.5 15.6245 3.509 19.5545 7.6805 20.942C8.2055 21.038 8.3975 20.714 8.3975 20.4365C8.3975 20.1875 8.3885 19.5275 8.3825 18.6515C5.462 19.286 4.847 17.246 4.847 17.246C4.3685 16.034 3.68 15.7115 3.68 15.7115C2.7275 15.0605 3.752 15.074 3.752 15.074C4.8065 15.149 5.3615 16.154 5.3615 16.154C6.2975 17.759 7.8185 17.294 8.417 17.027C8.5115 16.349 8.783 15.887 9.083 15.6245C6.752 15.3605 4.301 14.4605 4.301 10.4405C4.301 9.296 4.7105 8.3585 5.381 7.6265C5.273 7.361 4.913 6.2945 5.486 4.8515C5.486 4.8515 6.365 4.568 8.372 5.9255C9.22856 5.69213 10.1122 5.5731 11 5.5715C11.8925 5.576 12.791 5.6915 13.6295 5.9255C15.6335 4.568 16.514 4.85 16.514 4.85C17.087 6.2945 16.727 7.361 16.619 7.625C17.291 8.36 17.699 9.296 17.699 10.4405C17.699 14.4695 15.242 15.3575 12.9035 15.6155C13.28 15.9395 13.616 16.58 13.616 17.5595C13.616 18.9605 13.6025 20.0915 13.6025 20.4365C13.6025 20.717 13.793 21.0425 14.3255 20.9405C16.4141 20.2441 18.2307 18.9084 19.5183 17.1226C20.8058 15.3367 21.4991 13.1911 21.5 10.9895C21.4984 8.20618 20.3913 5.53747 18.4222 3.57035C16.4531 1.60323 13.7833 0.498806 11 0.5Z" fill="white"/>
</svg>
