<svg width="60" height="50" viewBox="0 0 60 50" fill="none" xmlns="http://www.w3.org/2000/svg">
<path d="M54.7826 0.770832C46.9081 4.03227 13.143 18.0182 3.81368 21.83C-2.44296 24.2716 1.21976 26.5609 1.21976 26.5609C1.21976 26.5609 6.56056 28.392 11.1391 29.7654C15.717 31.1388 18.1586 29.6131 18.1586 29.6131L39.6754 15.1158C47.3055 9.92731 45.4745 14.2 43.6428 16.0316C39.6754 19.9996 33.1135 26.2556 27.6198 31.2918C25.1782 33.4281 26.3986 35.2591 27.4674 36.175C31.4348 39.5324 42.27 46.3996 42.8799 46.8572C46.1036 49.1395 52.4447 52.4246 53.4092 45.4838L57.2242 21.5254C58.4454 13.4377 59.6658 5.95995 59.8182 3.82363C60.2764 -1.36549 54.7826 0.770832 54.7826 0.770832Z" fill="#1B92D1"/>
</svg>
